<?xml version="1.0" encoding="UTF-8"?>
<svg width="153px" height="153px" viewBox="0 0 153 153" version="1.1" xmlns="http://www.w3.org/2000/svg" xmlns:xlink="http://www.w3.org/1999/xlink">
    <!-- Generator: Sketch 63 (92445) - https://sketch.com -->
    <title>icon</title>
    <desc>Created with Sketch.</desc>
    <defs>
        <polygon id="path-1" points="47 55 106 55 106 97.1428571 47 97.1428571"></polygon>
    </defs>
    <g id="Infos-zur-BIG" stroke="none" stroke-width="1" fill="none" fill-rule="evenodd">
        <g id="Desktop-Infos-zur-BIG-V2" transform="translate(-1131.000000, -320.000000)">
            <g id="icon" transform="translate(1131.000000, 320.000000)">
                <path d="M76.5,0 C34.2502166,0 0,34.2502166 0,76.5 C0,118.749783 34.2502166,153 76.5,153 C118.749783,153 153,118.749783 153,76.5 C153,34.2502166 118.749783,0 76.5,0 Z M76.5,3 C117.092929,3 150,35.9070709 150,76.5 C150,117.092929 117.092929,150 76.5,150 C35.9070709,150 3,117.092929 3,76.5 C3,35.9070709 35.9070709,3 76.5,3 Z" id="Oval-Copy-2" fill="#014785" fill-rule="nonzero"></path>
                <mask id="mask-2" fill="white">
                    <use xlink:href="#path-1"></use>
                </mask>
                <g id="Clip-2"></g>
                <path d="M100.19116,63.82331 C100.128975,62.6059623 99.5590718,61.5077654 98.5897242,60.731132 C97.8588727,60.1454269 96.9539044,59.8360656 95.9706568,59.8360656 C94.7159918,59.8360656 93.4781532,60.3442508 92.5753797,61.2299861 L70.5188812,82.8716436 L60.4230346,72.9670557 C59.5209927,72.0813203 58.2831541,71.5731351 57.0277575,71.5731351 C56.0452414,71.5731351 55.1395416,71.8824965 54.4086901,72.4674837 C53.4393425,73.2455527 52.8709024,74.3451851 52.8087178,75.5625329 C52.7472649,76.7648073 53.2088938,77.940524 54.0743566,78.7903705 L68.3702217,92.8157092 C68.9437828,93.3784455 69.7060924,93.6885246 70.517418,93.6885246 C71.3294753,93.6885246 72.093248,93.3784455 72.6690039,92.8142737 L98.9247893,67.053301 C99.7917152,66.2027367 100.253344,65.0255844 100.19116,63.82331" id="Fill-1" fill="#F29100" mask="url(#mask-2)"></path>
            </g>
        </g>
    </g>
</svg>