<svg xmlns="http://www.w3.org/2000/svg" width="30" height="30" viewBox="0 0 30 30">
    <g fill="none" fill-rule="evenodd" transform="translate(0 4)">
        <rect width="28.636" height="20.455" y="1.23" fill="#014785" rx="3"/>
        <path fill="#FFF" d="M24.206 8.066a.54.54 0 0 0 .048-.042l.1-.097.31-.295a6.82 6.82 0 0 0 .273-.276l.743-.726a.785.785 0 0 0 .042-1.065.68.68 0 0 0-1.002-.045l-.605.59-5.592 5.273c-.425.4-.843.807-1.281 1.192-.676.594-1.463.883-2.242.864-.779.019-1.566-.27-2.24-.864-.44-.385-.858-.793-1.283-1.192L5.885 6.11l-.604-.59a.68.68 0 0 0-1.003.045.785.785 0 0 0 .043 1.065l.743.726c.086.093.178.185.272.276l.311.295.1.097c.015.015.03.03.048.042.91.862 1.825 1.718 2.737 2.577.337.318.672.638 1.015.965-.056.062-.09.103-.127.14-1.46 1.506-2.92 3.01-4.382 4.515-.062.065-.126.129-.18.201a.714.714 0 0 0-.028.823c.165.254.458.376.74.267.14-.056.272-.166.382-.28 1.453-1.487 2.9-2.98 4.35-4.47.08-.083.162-.163.253-.251.4.377.787.738 1.17 1.1.773.73 1.67 1.196 2.706 1.303.193.02.383.03.569.026.187.003.377-.006.57-.026 1.035-.107 1.932-.573 2.705-1.302.384-.363.77-.724 1.17-1.101.091.088.173.168.253.251 1.45 1.49 2.898 2.983 4.35 4.47.11.114.242.224.383.28.281.11.575-.013.74-.267a.713.713 0 0 0-.029-.823c-.052-.072-.118-.136-.18-.2-1.46-1.506-2.922-3.01-4.382-4.515-.037-.038-.07-.079-.126-.141.342-.327.678-.647 1.014-.965.912-.859 1.827-1.715 2.738-2.577"/>
        <path fill="#014785" d="M4.354 1.601c-1.512 0-2.74 1.22-2.74 2.72v13.042c0 1.5 1.228 2.72 2.74 2.72H25.31c1.512 0 2.741-1.22 2.741-2.72V4.321c0-1.5-1.23-2.72-2.74-2.72H4.353zM25.31 21.685H4.354c-2.4 0-4.354-1.939-4.354-4.322V4.321C0 1.94 1.953 0 4.354 0H25.31c2.4 0 4.354 1.939 4.354 4.321v13.042c0 2.383-1.954 4.322-4.354 4.322z"/>
    </g>
</svg>
