<svg id="Ebene_1" data-name="Ebene 1" xmlns="http://www.w3.org/2000/svg" viewBox="0 0 128 128"><defs><style>.cls-1{fill:#024984;}</style></defs><path class="cls-1" d="M122.45,7.69a1.41,1.41,0,0,0-.06-.22c0-.08,0-.17-.08-.25s-.09-.17-.13-.25-.06-.12-.1-.18a2.52,2.52,0,0,0-.69-.69l-.18-.1L121,5.87l-.25-.08a1.41,1.41,0,0,0-.22-.06,2.63,2.63,0,0,0-.49-.05H56.18a2.5,2.5,0,0,0,0,5H114L54.41,70.23a2.52,2.52,0,0,0,0,3.54,2.51,2.51,0,0,0,3.54,0L117.5,14.21V72a2.5,2.5,0,0,0,5,0V8.18A2.63,2.63,0,0,0,122.45,7.69Z"/><path class="cls-1" d="M99,69.5A2.5,2.5,0,0,0,96.5,72v45.5h-86v-86H56a2.5,2.5,0,0,0,0-5H8A2.5,2.5,0,0,0,5.5,29v91A2.5,2.5,0,0,0,8,122.5H99a2.5,2.5,0,0,0,2.5-2.5V72A2.5,2.5,0,0,0,99,69.5Z"/></svg>