<svg id="Ebene_1" data-name="Ebene 1" xmlns="http://www.w3.org/2000/svg" viewBox="0 0 128 128"><defs><style>.cls-1{fill:#024984;}</style></defs><path class="cls-1" d="M93,95.15a2.5,2.5,0,0,0-1.87-1.41l-27.77-4.4a2.53,2.53,0,0,0-2.25.79A19.38,19.38,0,0,0,57,97,48.29,48.29,0,0,1,31,71a19.38,19.38,0,0,0,6.89-4,2.53,2.53,0,0,0,.79-2.25l-4.4-27.77A2.5,2.5,0,0,0,32.85,35a17.72,17.72,0,0,0-4.75-1.46,18.36,18.36,0,0,0-3.25-.29A19.32,19.32,0,0,0,5.51,51.62v1c0,.16,0,.33,0,.49v.41a69.84,69.84,0,0,0,69,69h1.87a19.32,19.32,0,0,0,18.35-19.34,19.81,19.81,0,0,0-1.75-8ZM76.17,117.49H74.54a64.82,64.82,0,0,1-64-64V51.83A14.33,14.33,0,0,1,24.85,38.27a13.26,13.26,0,0,1,2.41.22,12.68,12.68,0,0,1,2.28.57l4,25a13.91,13.91,0,0,1-6.25,2.7,2.53,2.53,0,0,0-1.75,1.19,2.5,2.5,0,0,0-.22,2.1A53.27,53.27,0,0,0,58,102.72a2.5,2.5,0,0,0,2.1-.22,2.53,2.53,0,0,0,1.19-1.75A13.91,13.91,0,0,1,64,94.5l25,4a13.46,13.46,0,0,1,.58,2.35,12.81,12.81,0,0,1,.21,2.34A14.33,14.33,0,0,1,76.17,117.49Z"/><path class="cls-1" d="M66,5.5A57,57,0,0,0,29.39,18.87a2.5,2.5,0,0,0,3.22,3.83A51.9,51.9,0,0,1,66,10.5c28.4,0,51.5,23.55,51.5,52.5a52.08,52.08,0,0,1-12.41,33.39,2.49,2.49,0,0,0,.3,3.52,2.49,2.49,0,0,0,3.52-.3A57.07,57.07,0,0,0,122.5,63C122.5,31.29,97.15,5.5,66,5.5Z"/><path class="cls-1" d="M55.8,66H72.16V63.08H61l7.4-10c2.44-3.28,3.4-5.68,3.4-7.72,0-4.36-2.76-7.32-8.56-7.32a14.56,14.56,0,0,0-6.68,1.48l.92,2.28a12.31,12.31,0,0,1,5.08-1.16c3.76,0,5.52,1.88,5.52,5,0,1.68-.44,3.4-2.36,6.12Z"/><path class="cls-1" d="M86.24,38.48l-11.16,19v2.28H86.36V66H89.6V59.72h2.24V57.6H89.6V38.48Zm.12,7.6V57.6h-8.8l7-11.84A29.62,29.62,0,0,0,86.4,42h.08C86.4,43.32,86.36,44.64,86.36,46.08Z"/></svg>