<svg id="Ebene_1" data-name="Ebene 1" xmlns="http://www.w3.org/2000/svg" viewBox="0 0 128 128"><defs><style>.cls-1{fill:#024984;}</style></defs><path class="cls-1" d="M64,63.5a29,29,0,1,0-29-29A29,29,0,0,0,64,63.5Zm0-53a24,24,0,1,1-24,24A24,24,0,0,1,64,10.5Z"/><path class="cls-1" d="M73.78,69.5H54.22A44.77,44.77,0,0,0,9.5,114.22V116a6.51,6.51,0,0,0,6.5,6.5H96a2.5,2.5,0,0,0,0-5H16a1.5,1.5,0,0,1-1.5-1.5v-1.78A39.77,39.77,0,0,1,54.22,74.5H73.78a39.77,39.77,0,0,1,39.72,39.72V120a2.5,2.5,0,0,0,5,0v-5.78A44.77,44.77,0,0,0,73.78,69.5Z"/></svg>