<svg id="Ebene_1" data-name="Ebene 1" xmlns="http://www.w3.org/2000/svg" viewBox="0 0 128 128"><defs><style>.cls-1{fill:#024984;}</style></defs><path class="cls-1" d="M76,45.5H40A2.5,2.5,0,0,0,37.5,48v8A2.5,2.5,0,0,0,40,58.5H52A1.5,1.5,0,0,1,53.5,60v56a6.51,6.51,0,0,0,6.5,6.5H76a6.51,6.51,0,0,0,6.5-6.5V52A6.51,6.51,0,0,0,76,45.5ZM77.5,116a1.5,1.5,0,0,1-1.5,1.5H60a1.5,1.5,0,0,1-1.5-1.5V60A6.51,6.51,0,0,0,52,53.5H42.5v-3H76A1.5,1.5,0,0,1,77.5,52Z"/><path class="cls-1" d="M68,42.5A18.5,18.5,0,1,0,49.5,24,18.52,18.52,0,0,0,68,42.5Zm0-32A13.5,13.5,0,1,1,54.5,24,13.52,13.52,0,0,1,68,10.5Z"/></svg>