<svg xmlns="http://www.w3.org/2000/svg" width="24" height="24" viewBox="0 0 24 24">
    <g fill="none" fill-rule="evenodd">
        <g fill="#014785" fill-rule="nonzero">
            <rect width="3.512" height="3.512" x="4.293" y="10.732" rx="1.756"/>
            <path d="M22.049 1.756h-2.927c0-.97-.786-1.756-1.756-1.756S15.61.786 15.61 1.756H8.195C8.195.786 7.41 0 6.44 0S4.683.786 4.683 1.756H1.756C.786 1.756 0 2.542 0 3.512v19.512c0 .54.437.976.976.976h21.853c.54 0 .976-.437.976-.976V3.512c0-.97-.786-1.756-1.756-1.756zM1.95 3.707h2.732v.39c0 .97.786 1.757 1.756 1.757s1.756-.787 1.756-1.756v-.39h7.415v.39c0 .97.786 1.756 1.756 1.756s1.756-.787 1.756-1.756v-.39h2.732v2.731H1.95V3.707zM21.854 22.05H1.95V8.39h19.903V22.05z"/>
            <rect width="3.512" height="3.512" x="10.146" y="10.732" rx="1.756"/>
            <rect width="3.512" height="3.512" x="16" y="10.732" rx="1.756"/>
            <rect width="3.512" height="3.512" x="4.293" y="16.585" rx="1.756"/>
            <rect width="3.512" height="3.512" x="10.146" y="16.585" rx="1.756"/>
            <rect width="3.512" height="3.512" x="16" y="16.585" rx="1.756"/>
        </g>
        <path d="M0 0H24V24H0z"/>
    </g>
</svg>
