<svg xmlns="http://www.w3.org/2000/svg" width="36" height="27" viewBox="0 0 36 27"><path fill="#014785" fill-rule="evenodd" d="M27.334 23.561l-7.079-2.933 11.84-13.413-4.761 16.346zm-13.2.531l-2.633-6.368 11.405-6.31c.494-.274.64-.866.329-1.325-.31-.458-.966-.608-1.459-.335l-11.89 6.582-6.121-2.552L32.674 3.446l-15.59 17.661-2.95 2.985zM35.516.92a1.15 1.15 0 0 0-1.102-.19L.65 12.806c-.392.14-.647.482-.65.87-.003.388.249.745.638.907l8.849 3.688 3.295 7.971a1.068 1.068 0 0 0 .854.634c.346.048.694-.062.926-.297l3.743-3.789.026.02.37-.419.214-.218 8.714 3.61c.282.117.602.118.878 0a.956.956 0 0 0 .558-.606l6.778-23.273c.104-.354-.023-.735-.327-.983z"/></svg>