<svg id="Ebene_1" data-name="Ebene 1" xmlns="http://www.w3.org/2000/svg" viewBox="0 0 128 128"><defs><style>.cls-1{fill:#014785;}</style></defs><path class="cls-1" d="M122.14,93.5a22.75,22.75,0,0,0-1.89-6.19,2.45,2.45,0,0,0-1.87-1.41L81.45,80.05a2.49,2.49,0,0,0-2.24.79,24.78,24.78,0,0,0-5.48,9.7A65,65,0,0,1,37.46,54.27a24.78,24.78,0,0,0,9.7-5.48A2.49,2.49,0,0,0,48,46.55L42.1,9.62a2.45,2.45,0,0,0-1.41-1.87,22.71,22.71,0,0,0-6.11-1.88A24,24,0,0,0,30.4,5.5,24.86,24.86,0,0,0,5.52,29.12v.12c0,.18,0,.35,0,.53s0,.42,0,.63,0,.42,0,.64v.55a92,92,0,0,0,90.92,90.89h2.44A24.86,24.86,0,0,0,122.5,97.6,23.34,23.34,0,0,0,122.14,93.5Zm-23.45,24h-.56c-.36,0-.71,0-1.07,0h-.59A87,87,0,0,1,10.52,31.55c0-.2,0-.41,0-.61s0-.36,0-.54,0-.35,0-.53,0-.37,0-.56A19.86,19.86,0,0,1,30.4,10.5a18.86,18.86,0,0,1,3.34.3,18.09,18.09,0,0,1,3.64,1L42.79,46a19.52,19.52,0,0,1-9.06,4,2.5,2.5,0,0,0-2,3.28,70,70,0,0,0,43,43,2.5,2.5,0,0,0,3.28-2,19.52,19.52,0,0,1,4-9.06l34.18,5.41a18.07,18.07,0,0,1,1,3.71,18.41,18.41,0,0,1,.29,3.27A19.86,19.86,0,0,1,98.69,117.48Z"/></svg>