<svg id="Ebene_1" data-name="Ebene 1" xmlns="http://www.w3.org/2000/svg" viewBox="0 0 128 128"><defs><style>.cls-1{fill:#024984;}</style></defs><path class="cls-1" d="M64,5.5A58.5,58.5,0,1,0,122.5,64,58.56,58.56,0,0,0,64,5.5Zm0,112A53.5,53.5,0,1,1,117.5,64,53.56,53.56,0,0,1,64,117.5Z"/><path class="cls-1" d="M78,84.5H55.71L74.52,64.12a14.73,14.73,0,0,0,3.75-7.26,12.83,12.83,0,0,0,.23-2.36,16,16,0,0,0-29.3-8.89,2.5,2.5,0,1,0,4.15,2.78A11,11,0,0,1,73.5,54.5a8,8,0,0,1-.14,1.43,9.81,9.81,0,0,1-2.51,4.8L48.16,85.3A2.51,2.51,0,0,0,50,89.5H78a2.5,2.5,0,0,0,0-5Z"/></svg>