<svg id="Ebene_1" data-name="Ebene 1" xmlns="http://www.w3.org/2000/svg" viewBox="0 0 128 128"><defs><style>.cls-1{fill:#024984;}</style></defs><path class="cls-1" d="M64,122.5A58.5,58.5,0,1,1,122.5,64,58.56,58.56,0,0,1,64,122.5Zm0-112A53.5,53.5,0,1,0,117.5,64,53.56,53.56,0,0,0,64,10.5Z"/><path class="cls-1" d="M63.86,89.37a43.32,43.32,0,0,1-15-3.2,2.5,2.5,0,0,1,2-4.59,39.06,39.06,0,0,0,13,2.79,13.12,13.12,0,0,0,9.87-4.3,8.87,8.87,0,0,0,1.68-7.71c-1.34-6.66-13.46-7-16.66-7h-.89a2.5,2.5,0,0,1-.14-5c.11,0,.53,0,1.18,0,5.82-.32,12.72-3.13,13.88-4.86a8.4,8.4,0,0,0,.5-6.53,7.59,7.59,0,0,0-5.21-4.71c-7.56-2.53-14.5,3.44-14.57,3.51A2.5,2.5,0,0,1,50.21,44c.37-.32,9.19-7.9,19.44-4.49,5.3,1.77,7.47,5.24,8.36,7.84a13.18,13.18,0,0,1-1.07,10.92c-1,1.49-3,2.86-5.53,4,4.18,1.54,7.93,4.27,8.9,9.12A13.83,13.83,0,0,1,77.6,83.24C73.89,87.76,68.07,89.37,63.86,89.37Z"/></svg>