<svg id="Ebene_1" data-name="Ebene 1" xmlns="http://www.w3.org/2000/svg" viewBox="0 0 128 128"><defs><style>.cls-1{fill:#024984;}</style></defs><path class="cls-1" d="M64,5.5A58.5,58.5,0,1,0,122.5,64,58.56,58.56,0,0,0,64,5.5Zm0,112A53.5,53.5,0,1,1,117.5,64,53.56,53.56,0,0,1,64,117.5Z"/><path class="cls-1" d="M78.74,70.62h-7.5V39.12a2.51,2.51,0,0,0-1.75-2.39,2.48,2.48,0,0,0-2.79,1l-24,34a2.5,2.5,0,0,0,2,3.94h21.5v10.5a2.5,2.5,0,0,0,5,0V75.62h7.5a2.5,2.5,0,1,0,0-5Zm-12.5,0H49.56L66.24,47Z"/></svg>